<?xml version="1.0" encoding="utf-8"?>
<!-- Generator: Adobe Illustrator 22.1.0, SVG Export Plug-In . SVG Version: 6.00 Build 0)  -->
<svg version="1.1" id="Layer_1" xmlns="http://www.w3.org/2000/svg" xmlns:xlink="http://www.w3.org/1999/xlink" x="0px" y="0px"
	 viewBox="0 0 78.9 35.3" style="enable-background:new 0 0 78.9 35.3;" xml:space="preserve">
<style type="text/css">
	.st0{fill:#36C3FB;}
</style>
<title>Asset 1</title>
<g id="Layer_2_1_">
	<g id="Layer_1-2">
		<g id="Layer_2-2">
			<g id="Layer_1-2-2">
				<path class="st0" d="M5.4,0.3c-1.5,0-2.9,0.6-4,1.6C0.5,2.7,0,3.9,0,5.1C0.1,11.5,0.1,18,0.1,24.5c0,0.5,0.1,0.8,0.7,0.9
					L15,29.2v0c0.1,3.3,3,5.9,6.3,5.8c3.2-0.1,5.7-2.7,5.8-5.8h23.3c0,3.3,2.7,6.1,6,6.1s6.1-2.7,6.1-6c0,0,0,0,0,0h14
					c1.8,0,2.4-0.6,2.4-2.4V16.5c0-0.5-0.1-0.8-0.5-1c-0.6-0.3-1-1-0.9-1.7c-0.1-3.6-0.3-7.1-0.5-10.7c0.8,0,1.4-0.7,1.4-1.5V1.5
					C78.4,0.7,77.8,0,77,0H62.5c-0.3,0-0.6,0.1-0.9,0.3 M66.5,6.9C66.4,6,67,5.2,67.9,5.1l0,0c0.1,0,0.3,0,0.4,0h2.9
					c1.5,0,2,0.6,2,2.1v17.1c0,1.3-0.6,1.9-1.9,1.9h-3.1c-0.9,0.1-1.7-0.5-1.8-1.3c0,0,0,0,0,0c0-0.1,0-0.3,0-0.4L66.5,6.9z
					 M53,29.3c0-0.4,0.1-0.9,0.3-1.3c0.5-1.3,1.8-2.1,3.1-2.1c0.5,0,0.9,0.1,1.3,0.3c0.2,0.1,0.4,0.2,0.6,0.3l0.3,0.2
					c0.3,0.3,0.6,0.6,0.8,1c0.5,1,0.5,2.2,0,3.2c-0.2,0.4-0.5,0.7-0.8,1l-0.3,0.2c-0.2,0.1-0.4,0.2-0.6,0.3
					c-0.4,0.2-0.9,0.3-1.3,0.3c-1.8,0-3.4-1.5-3.4-3.3c0,0,0,0,0,0C53,29.4,53,29.3,53,29.3z M44.8,6.7c-0.1-0.8,0.5-1.6,1.3-1.7
					c0,0,0,0,0,0l0,0c0.1,0,0.3,0,0.4,0h14.2c0.9-0.1,1.7,0.5,1.8,1.4c0,0,0,0,0,0l0,0c0,0.1,0,0.3,0,0.4v5.3
					c0.2,0.9-0.4,1.7-1.3,1.9c0,0,0,0,0,0h0c-0.2,0-0.3,0-0.5,0H46.6c-1.3,0-1.8-0.5-1.8-1.8C44.7,10.4,44.7,8.5,44.8,6.7z M25.8,14
					c-1.3,0-1.8-0.5-1.8-1.8V6.8C24,5.6,24.6,5,25.8,5H40c0.9-0.1,1.7,0.5,1.8,1.4c0,0.2,0,0.3,0,0.5v5.3c0,1.3-0.6,1.9-1.9,1.9
					L25.8,14L25.8,14z M17.7,29.3c0-1.9,1.6-3.4,3.4-3.3c1.4,0,2.6,0.8,3.1,2.1c0.2,0.4,0.3,0.9,0.3,1.3c0,1.9-1.5,3.4-3.4,3.4
					c-1.4,0-2.6-0.8-3.1-2.1l0,0C17.7,30.2,17.6,29.7,17.7,29.3z M4.7,5.8C5.6,5.4,6.5,5.1,7.5,5c3.9-0.1,7.8,0,11.7,0
					c0.9-0.1,1.7,0.5,1.8,1.4c0,0,0,0,0,0l0,0c0,0.1,0,0.3,0,0.4v5.3c0,1.3-0.6,1.9-1.9,1.9H5c-0.8,0.1-1.6-0.4-1.7-1.3c0,0,0,0,0,0
					l0,0c0-0.1,0-0.3,0-0.4V8.5C3.2,7.4,3.7,6.3,4.7,5.8z"/>
			</g>
		</g>
	</g>
</g>
</svg>
