<svg xmlns="http://www.w3.org/2000/svg" viewBox="0 0 78.88 35.31"><defs><style>.cls-1{fill:#fcb41d;}</style></defs><title>Asset 1</title><g id="Layer_2" data-name="Layer 2"><g id="Layer_1-2" data-name="Layer 1"><g id="Layer_2-2" data-name="Layer 2"><g id="Layer_1-2-2" data-name="Layer 1-2"><path class="cls-1" d="M5.37.29a5.61,5.61,0,0,0-4,1.65A4.17,4.17,0,0,0,0,5.06q.11,9.71.12,19.41c0,.52.11.75.69.87L15,29.21v.05a6.06,6.06,0,0,0,12.11,0H50.4a6.05,6.05,0,1,0,12.1,0h14c1.8,0,2.38-.6,2.38-2.42V16.55c0-.46-.06-.82-.5-1a1.69,1.69,0,0,1-.89-1.68c-.14-3.56-.31-7.11-.46-10.67a1.48,1.48,0,0,0,1.4-1.53V1.46A1.49,1.49,0,0,0,77,0H62.45a1.42,1.42,0,0,0-.87.29m4.93,6.6a1.61,1.61,0,0,1,1.38-1.81h0a1.48,1.48,0,0,1,.42,0h2.91c1.48,0,2,.56,2,2.05v17.1c0,1.29-.58,1.86-1.87,1.88H68.27a1.58,1.58,0,0,1-1.79-1.36,1.55,1.55,0,0,1,0-.43ZM53.05,29.26A3.23,3.23,0,0,1,53.31,28a3.39,3.39,0,0,1,3.12-2.07,3.3,3.3,0,0,1,1.31.27,3.61,3.61,0,0,1,.58.31l.26.19a3.78,3.78,0,0,1,.82,1,3.4,3.4,0,0,1,0,3.22,3.78,3.78,0,0,1-.82,1l-.26.19a3.68,3.68,0,0,1-.58.32,3.52,3.52,0,0,1-1.31.26,3.34,3.34,0,0,1-3.38-3.32v-.11ZM44.76,6.73A1.55,1.55,0,0,1,46.12,5h0a1.34,1.34,0,0,1,.4,0H60.75a1.59,1.59,0,0,1,1.78,1.41h0a2.54,2.54,0,0,1,0,.39v5.34A1.61,1.61,0,0,1,61.21,14h-.05a1.77,1.77,0,0,1-.46,0H46.57c-1.27,0-1.8-.54-1.81-1.82C44.74,10.36,44.74,8.54,44.76,6.73ZM25.84,14C24.55,14,24,13.47,24,12.2V6.85C24,5.59,24.58,5,25.81,5H40a1.62,1.62,0,0,1,1.77,1.4,1.19,1.19,0,0,1,0,.46v5.26c0,1.28-.59,1.85-1.89,1.86h-14ZM17.66,29.26A3.38,3.38,0,0,1,24.16,28a3.48,3.48,0,0,1,.26,1.31,3.38,3.38,0,0,1-6.49,1.32h0A3.22,3.22,0,0,1,17.66,29.26ZM4.71,5.85A7,7,0,0,1,7.52,5c3.9-.09,7.8,0,11.7,0a1.64,1.64,0,0,1,1.85,1.4h0a1.55,1.55,0,0,1,0,.43v5.26c0,1.3-.58,1.87-1.87,1.88H5a1.5,1.5,0,0,1-1.71-1.28h0a2.67,2.67,0,0,1,0-.4V8.49A2.63,2.63,0,0,1,4.71,5.85Z"/></g></g></g></g></svg>