<svg xmlns="http://www.w3.org/2000/svg" xmlns:xlink="http://www.w3.org/1999/xlink" width="90.251" height="89.989" viewBox="0 0 90.251 89.989">
  <defs>
    <clipPath id="clip-path">
      <path id="Clip_2" data-name="Clip 2" d="M0,0V65.159A24.6,24.6,0,0,0,24.541,89.652H64.71A24.6,24.6,0,0,0,89.251,65h0V24.655A24.655,24.655,0,0,0,74.377,1.992h0V14.943H59.5V0Z" transform="translate(0 0.337)" fill="none"/>
    </clipPath>
    <linearGradient id="linear-gradient" y1="0.5" x2="1" y2="0.5" gradientUnits="objectBoundingBox">
      <stop offset="0" stop-color="#ed2a7b"/>
      <stop offset="1" stop-color="#9e1f62"/>
    </linearGradient>
    <clipPath id="clip-path-2">
      <path id="Clip_7" data-name="Clip 7" d="M0,0H74.378V44.573H0Z" transform="translate(0 0.388)" fill="none"/>
    </clipPath>
    <clipPath id="clip-path-3">
      <path id="Clip_10" data-name="Clip 10" d="M0,89.7H89.671V0H0Z" transform="translate(-1 0)" fill="none"/>
    </clipPath>
  </defs>
  <g id="Group_30" data-name="Group 30" transform="translate(1 -0.159)">
    <g id="Group_29" data-name="Group 29">
      <g id="Group_3" data-name="Group 3" transform="translate(0 0.159)">
        <path id="Clip_2-2" data-name="Clip 2" d="M0,0V65.159A24.6,24.6,0,0,0,24.541,89.652H64.71A24.6,24.6,0,0,0,89.251,65h0V24.655A24.655,24.655,0,0,0,74.377,1.992h0V14.943H59.5V0Z" transform="translate(0 0.337)" fill="none"/>
        <g id="Group_3-2" data-name="Group 3" clip-path="url(#clip-path)">
          <path id="Fill_1" data-name="Fill 1" d="M0,0V65.159A24.6,24.6,0,0,0,24.541,89.652H64.71A24.6,24.6,0,0,0,89.251,65h0V24.655A24.655,24.655,0,0,0,74.377,1.992h0V14.943H59.5V0Z" transform="translate(0 0.337)" fill="url(#linear-gradient)"/>
        </g>
      </g>
      <g id="Group_28" data-name="Group 28" transform="translate(0 0.159)">
        <path id="Fill_4" data-name="Fill 4" d="M14.875,14.943V1.992A24.331,24.331,0,0,0,5.207,0H0V14.943Z" transform="translate(59.503 0.337)" fill="#fefefe"/>
        <g id="Group_8" data-name="Group 8" transform="translate(0 18.618)">
          <path id="Clip_7-2" data-name="Clip 7" d="M0,0H74.378V44.573H0Z" transform="translate(0 0.388)" fill="none"/>
          <g id="Group_8-2" data-name="Group 8" clip-path="url(#clip-path-2)">
            <path id="Fill_6" data-name="Fill 6" d="M44.627,19.921V44.573H29.745V18.681a3.727,3.727,0,0,0-3.724-3.733H24.794l-9.926,0V44.573H0V.008H27.762L28.317,0a14.764,14.764,0,0,1,8.859,2.939A14.741,14.741,0,0,1,46.031,0L74.378.008h0v14.94H48.352a3.724,3.724,0,0,0-3.718,3.733Z" transform="translate(0 0.388)" fill="#fefefe"/>
          </g>
        </g>
        <path id="Clip_10-2" data-name="Clip 10" d="M0,89.7H89.671V0H0Z" transform="translate(-1 0)" fill="none"/>
        <g id="Mask_Group_2" data-name="Mask Group 2" clip-path="url(#clip-path-3)">
          <path id="Fill_9" data-name="Fill 9" d="M0,25.9H14.875V0H0Z" transform="translate(59.503 37.687)" fill="#fefefe"/>
          <path id="Fill_11" data-name="Fill 11" d="M0,4.965V0H1.493l.9,3.387L3.278,0h1.5V4.965H3.848V1.057L2.867,4.965H1.9L.927,1.057V4.965Z" transform="translate(14.874 68.571)" fill="#fefefe"/>
          <path id="Fill_12" data-name="Fill 12" d="M0,4.965H1V0H0Z" transform="translate(20.161 68.571)" fill="#fefefe"/>
          <path id="Fill_13" data-name="Fill 13" d="M0,4.965V0H1.493l.9,3.387L3.277,0h1.5V4.965H3.848V1.057L2.867,4.965H1.905L.927,1.057V4.965Z" transform="translate(21.648 68.571)" fill="#fefefe"/>
          <path id="Fill_14" data-name="Fill 14" d="M2.4,5.135A2.332,2.332,0,0,1,.651,4.46,2.585,2.585,0,0,1,0,2.6,3.194,3.194,0,0,1,.226,1.324a2.354,2.354,0,0,1,.46-.68A1.935,1.935,0,0,1,1.326.2,2.714,2.714,0,0,1,2.39,0,2.327,2.327,0,0,1,4.139.681,2.625,2.625,0,0,1,4.8,2.574a2.62,2.62,0,0,1-.652,1.882A2.3,2.3,0,0,1,2.4,5.135ZM2.4.857a1.275,1.275,0,0,0-1,.425,1.894,1.894,0,0,0-.378,1.283,1.874,1.874,0,0,0,.389,1.279,1.267,1.267,0,0,0,.985.436,1.254,1.254,0,0,0,.979-.433,1.91,1.91,0,0,0,.383-1.3A1.88,1.88,0,0,0,3.39,1.277,1.263,1.263,0,0,0,2.4.857Z" transform="translate(26.763 68.487)" fill="#fefefe"/>
          <path id="Fill_15" data-name="Fill 15" d="M0,3.435.971,3.34a1.191,1.191,0,0,0,.356.722,1.072,1.072,0,0,0,.723.231,1.106,1.106,0,0,0,.727-.205.612.612,0,0,0,.245-.479.453.453,0,0,0-.1-.3.822.822,0,0,0-.359-.215q-.176-.061-.8-.217A2.7,2.7,0,0,1,.634,2.384,1.307,1.307,0,0,1,.393.676a1.346,1.346,0,0,1,.617-.5A2.478,2.478,0,0,1,1.983,0a2.082,2.082,0,0,1,1.4.41A1.452,1.452,0,0,1,3.878,1.5l-1,.044A.851.851,0,0,0,2.6,1,1,1,0,0,0,1.973.83a1.132,1.132,0,0,0-.681.18.361.361,0,0,0-.158.308.38.38,0,0,0,.148.3,2.6,2.6,0,0,0,.917.332,4.838,4.838,0,0,1,1.078.357,1.4,1.4,0,0,1,.546.5,1.482,1.482,0,0,1,.2.791,1.468,1.468,0,0,1-.237.8,1.411,1.411,0,0,1-.668.553,2.784,2.784,0,0,1-1.075.181A2.136,2.136,0,0,1,.6,4.7,1.9,1.9,0,0,1,0,3.435" transform="translate(31.636 68.486)" fill="#fefefe"/>
          <path id="Fill_16" data-name="Fill 16" d="M0,4.965H.654V0H0Z" transform="translate(37.657 68.571)" fill="#fefefe"/>
          <path id="Fill_17" data-name="Fill 17" d="M0,4.965V0H.671l2.6,3.9V0h.627V4.965H3.223l-2.6-3.9v3.9Z" transform="translate(39.009 68.571)" fill="#fefefe"/>
          <path id="Fill_18" data-name="Fill 18" d="M0,4.965V0H.671l2.6,3.9V0h.627V4.965H3.223l-2.6-3.9v3.9Z" transform="translate(43.548 68.571)" fill="#fefefe"/>
          <path id="Fill_19" data-name="Fill 19" d="M2.364,5.139A2.34,2.34,0,0,1,1.116,4.8a2.2,2.2,0,0,1-.833-.925A2.834,2.834,0,0,1,0,2.635,2.719,2.719,0,0,1,.661.7,2.253,2.253,0,0,1,2.367,0,2.378,2.378,0,0,1,3.6.328a2.158,2.158,0,0,1,.838.916,3.005,3.005,0,0,1,.288,1.333,2.944,2.944,0,0,1-.3,1.351,2.087,2.087,0,0,1-.859.9A2.458,2.458,0,0,1,2.364,5.139ZM2.371.565a1.676,1.676,0,0,0-1.2.48,2.155,2.155,0,0,0-.5,1.6A2.005,2.005,0,0,0,1.155,4.06a1.586,1.586,0,0,0,1.206.517,1.578,1.578,0,0,0,1.215-.522,2.122,2.122,0,0,0,.478-1.481,2.581,2.581,0,0,0-.2-1.058,1.593,1.593,0,0,0-.6-.7A1.623,1.623,0,0,0,2.371.565Z" transform="translate(47.894 68.483)" fill="#fefefe"/>
          <path id="Fill_20" data-name="Fill 20" d="M1.916,4.965,0,0H.708L1.993,3.608q.156.433.26.813.115-.407.266-.813L3.855,0h.668L2.587,4.965Z" transform="translate(52.513 68.571)" fill="#fefefe"/>
          <path id="Fill_21" data-name="Fill 21" d="M.695,4.966H0L1.9,0h.7L4.625,4.964H3.881L3.3,3.461H1.238l-.543,1.5ZM2.236.523h0a6.313,6.313,0,0,1-.265.947L1.427,2.926H3.1L2.587,1.551C2.427,1.127,2.312.791,2.236.523Z" transform="translate(56.118 68.571)" fill="#fefefe"/>
          <path id="Fill_22" data-name="Fill 22" d="M1.628,4.965V.586H0V0H3.919V.586H2.283V4.965Z" transform="translate(59.934 68.571)" fill="#fefefe"/>
          <path id="Fill_23" data-name="Fill 23" d="M0,4.965H.654V0H0Z" transform="translate(64.186 68.571)" fill="#fefefe"/>
          <path id="Fill_24" data-name="Fill 24" d="M2.364,5.139A2.34,2.34,0,0,1,1.116,4.8a2.2,2.2,0,0,1-.833-.925A2.834,2.834,0,0,1,0,2.635,2.719,2.719,0,0,1,.661.7,2.253,2.253,0,0,1,2.367,0,2.378,2.378,0,0,1,3.6.328a2.154,2.154,0,0,1,.838.916,3.005,3.005,0,0,1,.288,1.333,2.944,2.944,0,0,1-.3,1.351,2.094,2.094,0,0,1-.859.9A2.458,2.458,0,0,1,2.364,5.139ZM2.371.565a1.676,1.676,0,0,0-1.2.48,2.153,2.153,0,0,0-.5,1.6A2.005,2.005,0,0,0,1.155,4.06a1.586,1.586,0,0,0,1.206.517,1.578,1.578,0,0,0,1.215-.522,2.122,2.122,0,0,0,.478-1.481,2.581,2.581,0,0,0-.2-1.058,1.6,1.6,0,0,0-.6-.7A1.623,1.623,0,0,0,2.371.565Z" transform="translate(65.346 68.483)" fill="#fefefe"/>
          <path id="Fill_25" data-name="Fill 25" d="M0,4.965V0H.671l2.6,3.9V0h.627V4.965H3.224l-2.6-3.9v3.9Z" transform="translate(70.461 68.571)" fill="#fefefe"/>
          <path id="Fill_26" data-name="Fill 26" d="M0,0H3.582V.369H2.006V4.536h-.43V.369H0Z" transform="translate(81.295 0.284)" fill="#231f20"/>
          <path id="Fill_27" data-name="Fill 27" d="M0,0H.633L2.2,3.977,3.751,0h.633V4.536H3.954V.616H3.941L2.4,4.536h-.4L.443.616H.43V4.536H0Z" transform="translate(85.287 0.284)" fill="#231f20"/>
        </g>
      </g>
    </g>
  </g>
</svg>
