<?xml version="1.0" encoding="UTF-8"?>
<svg width="49px" height="69px" viewBox="0 0 49 69" version="1.1" xmlns="http://www.w3.org/2000/svg" xmlns:xlink="http://www.w3.org/1999/xlink">
    <title>Combined Shape Copy</title>
    <g id="Page-1" stroke="none" stroke-width="1" fill="none" fill-rule="evenodd">
        <g id="Bus-Terminal-Dashboard" transform="translate(-605.000000, -282.000000)" fill="#CCCC00">
            <path d="M629.5,282 C643.030976,282 654,292.969024 654,306.5 C654,315.22395 646.361723,329.5144 631.085168,349.371351 C630.979623,349.508542 630.856713,349.631452 630.719521,349.736998 C629.844064,350.410514 628.588373,350.246808 627.914857,349.371351 L627.914857,349.371351 L627.439935,348.752645 C612.479978,329.217292 605,315.133077 605,306.5 C605,292.969024 615.969024,282 629.5,282 Z M629.5,296.291667 C623.862093,296.291667 619.291667,300.862093 619.291667,306.5 C619.291667,312.137907 623.862093,316.708333 629.5,316.708333 C635.137907,316.708333 639.708333,312.137907 639.708333,306.5 C639.708333,300.862093 635.137907,296.291667 629.5,296.291667 Z" id="Combined-Shape-Copy"></path>
        </g>
    </g>
</svg>